<?xml version="1.0" encoding="utf-8"?>
<!-- Generator: Adobe Illustrator 23.0.2, SVG Export Plug-In . SVG Version: 6.00 Build 0)  -->
<svg version="1.1" id="Livello_1" xmlns="http://www.w3.org/2000/svg" xmlns:xlink="http://www.w3.org/1999/xlink" x="0px" y="0px"
	 viewBox="0 0 2043.8 1730" style="enable-background:new 0 0 2043.8 1730;" xml:space="preserve">
<style type="text/css">
	.st0{fill:#494949;}
</style>
<g>
	<polygon class="st0" points="1861.9,1118.3 1845.3,1118.4 1845.4,1126.2 1847.8,1134.7 1853.9,1139.2 1858.7,1134.4 1862,1136.4 
		1861.6,1132.6 1863.8,1119.6 	"/>
	<polygon class="st0" points="1890.9,1019.3 1887.4,1009.8 1878.2,1001.5 1876.5,996 1871.8,995.2 1868.9,987.2 1865.5,981.2 
		1853.5,974.8 1834.7,932.9 1831.1,925.7 1826.3,935.2 1827.3,937.7 1824.7,956.9 1821.4,964.9 1812.4,964.4 1791.3,950.6 
		1795.8,934.9 1794.4,935.6 1778,931.4 1771.1,928.4 1775.3,933.8 1764.8,936.4 1760.7,939.8 1756.4,947.1 1757.8,949.8 
		1749.7,949.2 1746.7,945.9 1730.6,951.6 1729.1,957.2 1723.4,964.9 1719.7,959.1 1715.4,964.3 1715.8,968.2 1710.7,976.3 
		1705.6,979.4 1698.1,980.3 1696.1,982 1680.5,986.6 1673.1,991.5 1670.8,995.1 1668.8,992.2 1665.7,1006.4 1670.3,1019.2 
		1666,1014.8 1671.1,1032 1673.9,1037.5 1675.2,1046.8 1678.7,1054.3 1676.8,1067.4 1674.7,1066.5 1683.4,1076.6 1692.6,1076.6 
		1702.3,1069.7 1711.1,1068.7 1721.3,1069.8 1730.2,1062.2 1738,1058 1741.6,1058.4 1753.9,1054.3 1769.7,1054.3 1778.2,1057.5 
		1789.4,1069.2 1790.9,1073.8 1800.4,1067.8 1802.2,1075.1 1799,1078.4 1803.6,1077.7 1804.9,1073 1808.1,1075.1 1808.3,1081.2 
		1812.1,1079.1 1818.9,1097.2 1825.7,1100.7 1831.5,1101.2 1836.8,1103.8 1847.8,1099.6 1850.4,1104.4 1861.4,1097.4 1867.4,1096.4 
		1873.2,1091.3 1875.1,1081.5 1880.8,1067 1887.5,1059.2 1890.2,1052.5 1893.9,1035.6 1891.1,1024.9 	"/>
	<polygon class="st0" points="1923.9,1236.8 1924.3,1234.5 1924,1234.8 	"/>
	<polygon class="st0" points="1716.8,809.3 1720.9,812.9 1723,804.2 1720.1,802.5 	"/>
	<polygon class="st0" points="1714.6,801.9 1718.9,802.8 1720.6,800.7 1717.3,798.2 1714.9,797.6 	"/>
	<polygon class="st0" points="1711.9,789.7 1707.1,787.4 1709.5,794.5 	"/>
	<polygon class="st0" points="1700.3,869.7 1697,884.3 1701,887.5 1708.8,879.7 1708.3,884.8 1714,892.1 1719.4,889.5 1715.9,884.9 
		1713.7,874.2 1722.4,870 1719.6,868.9 1709.7,872.2 1704.5,869.5 1706.4,861.6 1728.3,861.9 1730.9,858.9 1730.7,855.6 
		1721.8,859.3 1709.3,857 1703.5,860.6 1701.9,868.9 	"/>
	<polygon class="st0" points="1316.7,275.2 1324.8,274 1327.8,280.1 1324.9,285.8 1335.5,289.4 1348,289.5 1349,288.3 1340.1,277.5 
		1336.8,268.1 1337.6,254.5 1340.3,250.9 1342.2,242.9 1335.9,240.8 1327.7,241 1320.4,260.5 1317.5,263.3 1314.8,273.5 	"/>
	<polygon class="st0" points="1471.3,245 1468.4,248.9 1473.2,252.2 	"/>
	<polygon class="st0" points="1466.3,255.4 1462.6,260.3 1465.6,258 	"/>
	<polygon class="st0" points="1296.7,311.3 1296.9,319.9 1298.2,321 1304.8,317.2 1307.2,313.8 1301.3,308.6 	"/>
	<polygon class="st0" points="1355,294.6 1356.6,302.4 1365,305.1 1365.1,301.7 1358.6,294.5 	"/>
	<polygon class="st0" points="1371.4,175.9 1349.9,194.3 1347.2,197.4 1338.7,202.9 1338.4,215.5 1330.6,228.2 1327.1,231.6 
		1330.2,240 1334.2,237.9 1343.4,240.9 1348.6,233.8 1349.8,226.6 1354.7,222.1 1354.2,216.4 1357.4,216.3 1363.8,210.1 
		1374.2,196.1 1398.2,183.4 1406.6,177.4 1413,169.3 1410.7,160.3 1408,158.9 1401.3,160.6 1379.4,177.4 	"/>
	<polygon class="st0" points="1424.6,236.7 1421.3,237.4 1418.8,245.2 1423.1,245 	"/>
	<polygon class="st0" points="1096.1,331.2 1094.7,335 1095.5,334.2 	"/>
	<polygon class="st0" points="1100.7,329.7 1100.6,328.2 1097,332.3 	"/>
	<polygon class="st0" points="1106.4,322.9 1108.2,317.7 1104.5,319.6 	"/>
	<polygon class="st0" points="1118.2,314.6 1124.2,311.2 1121.3,307.2 	"/>
	<polygon class="st0" points="1111.4,323.7 1112.1,312.4 1109.5,317.1 1107.6,325.5 1109.5,327.5 	"/>
	<polygon class="st0" points="1125.4,306.6 1131.7,303.5 1131.2,299.5 1130.5,296.5 	"/>
	<polygon class="st0" points="1513.8,206 1512.3,208.9 1515.9,208.6 	"/>
	<polygon class="st0" points="1147.8,289.5 1151.5,291.5 1155,286.8 	"/>
	<polygon class="st0" points="1152.6,292.4 1152,294.1 1155.9,291.4 	"/>
	<polygon class="st0" points="1085.7,376.8 1084.4,375.3 1083.4,377.1 	"/>
	<polygon class="st0" points="2013.8,1089.6 2014.4,1088 2009.3,1077.1 2005.6,1076.3 2012.4,1090.3 2015,1091.4 2012.9,1104 
		2008.5,1107.9 2015.4,1112.2 2016.5,1116.3 2014.5,1120.4 2029.1,1105.8 2033.9,1101.9 2034,1094.8 2027.7,1097.8 	"/>
	<polygon class="st0" points="2001,1117.1 1998.1,1124 1985.1,1139.8 1977.7,1143.7 1970.2,1152.8 1970,1153.1 1969.8,1152.4 
		1969.6,1153.2 1969.9,1153.3 1967.1,1158.8 1985.2,1163.6 1990.8,1158.3 1995.2,1144.1 2004.2,1142.2 2011.3,1125.6 2011.4,1120.1 
		2004.7,1122.1 	"/>
	<polygon class="st0" points="1568.6,180.1 1569.9,176.4 1563,177.9 	"/>
	<polygon class="st0" points="1983.4,302.5 1974.9,302.2 1974.6,303.6 1982.5,307.5 	"/>
	<polygon class="st0" points="1577.1,851.6 1582.8,856.1 1591.3,869.3 1599.9,883.7 1612.7,895.2 1622.6,896.8 1623,890.4 
		1619.6,877.9 1617.3,878.3 1612.7,870.4 1609,861.7 1607,861.8 1604.8,859.8 1606.8,860.3 1604.1,858.2 1603.8,858.9 1599.7,855.4 
		1598.8,854.7 1599.3,852.8 1597.6,853.8 1597.6,853.8 1589.1,847.6 1575.1,834.8 1569.7,834.9 1562.8,832.8 1562.4,834.6 	"/>
	<polygon class="st0" points="1476.6,829.6 1485.8,827.6 1486.7,823.1 1481.8,813.7 1476,808.6 1475.8,809.6 1475.4,809 
		1475.6,809.4 1475.8,809.6 1474.6,818.8 	"/>
	<polygon class="st0" points="1651.4,748.8 1641.7,750.2 1639,757.5 1640.9,758.6 1648.6,756.6 	"/>
	<polygon class="st0" points="1646.3,871.8 1647.6,879.8 1651.7,882 1656,881 1671.6,884.3 1672.6,887.9 1681.9,882.3 1683.6,877.6 
		1682.3,874.3 1689.2,867.7 1689.3,862.6 1695.4,857.1 1688.9,843.8 1689.3,840.9 1689.4,840.9 1689.4,840.9 1689.5,840.7 
		1689.9,840.6 1689.9,840.7 1689.8,840.9 1690.3,840.9 1691.1,840.8 1690.5,840.5 1695.2,839.2 1698.9,834.1 1685.2,825 
		1676.9,836.6 1676.6,839.7 1674.9,836.7 1673.8,839.8 1672.3,841.6 1672.3,841.6 1673.8,839.8 1674.9,836.7 1675,836.4 1674.7,836 
		1673.8,836.5 1670.1,838.5 1669.4,838.5 1669.4,838.5 1669.4,838.5 1664.2,845.6 1656.2,848.4 1653.3,856.7 1645.1,854 
		1644.3,853.1 1644.3,853.1 1644.3,853.1 1642.8,853.7 1640.3,861.5 	"/>
	<polygon class="st0" points="1687.9,816.5 1697.2,807.6 1699.1,804.3 1688.1,815 	"/>
	<polygon class="st0" points="1620.7,903.1 1627.2,906.8 1645.5,909.1 1649.8,910.9 1664.8,911.7 1672.4,914.5 1669.5,908 
		1663.5,908.1 1660.8,904 1638.4,902.8 1631.5,898.7 1622.9,899.3 	"/>
	<polygon class="st0" points="1625.7,878.5 1623.9,874 1618.7,876.2 	"/>
	<polygon class="st0" points="1709.1,717.8 1703.6,729.5 1704.7,732.8 1708.9,732.8 1711.4,716.5 	"/>
	<polygon class="st0" points="940.2,909.4 940.3,910 940.7,909.7 	"/>
	<polygon class="st0" points="1268.3,998 1270.1,1002 1269.9,1007.1 1271.9,1011.1 1280.2,1014.6 1288.9,1011 1304.3,953.3 
		1307.5,950.3 1306.7,945 1303.1,935.7 1301.2,933.6 1297.9,941.4 1294.3,942.5 1293.7,948.6 1274.1,959 1271.6,964.8 1274.2,977 
		1273.7,981.3 	"/>
	<polygon class="st0" points="1003.6,835.3 1003.5,835.5 1004.2,835.7 1004.4,835.4 	"/>
	<polygon class="st0" points="950.9,821.7 948.3,821.5 950.8,822.3 	"/>
	<polygon class="st0" points="989.5,956 989.1,956.3 989.6,956.5 	"/>
	<polygon class="st0" points="1062.9,838.9 1062.4,839.6 1063.3,839.5 	"/>
	<polygon class="st0" points="1070,846 1071,846.3 1071.5,843.2 	"/>
	<polygon class="st0" points="1063.5,855.5 1064,855.7 1064.2,855.3 	"/>
	<polygon class="st0" points="1783.8,663.7 1784.7,657.5 1776.9,658.7 1772.9,663.3 	"/>
	<polygon class="st0" points="1733.7,913.4 1731.7,915 1731.1,915.5 1731.1,915.5 1730.9,915.7 1729.9,916.2 1729.5,916.5 
		1729.1,916.7 1728.4,916.9 1728.4,916.9 1727,917.3 1726.1,917.8 1726.1,917.8 1725.7,918 1724.3,922 1728.3,922.4 1731.5,919.1 
		1731.9,918.8 1731.9,918.8 1732.7,918.2 1743.5,913.4 1742.7,911.9 	"/>
	<polygon class="st0" points="1684.9,915.9 1698.2,913.9 1693.2,911.9 1691.6,914.3 1684.9,913.9 	"/>
	<polygon class="st0" points="1702.1,914.1 1718.9,913.6 1720.2,912 1710.9,913.3 1706.6,911.5 	"/>
	<polygon class="st0" points="1703.6,779.4 1706.5,779.2 1714.9,785.6 1717.9,784.9 1721.8,789.6 1726.7,790 1719.8,783.3 
		1715.6,783.7 1711.6,775.5 1717.4,766 1715.8,757.8 1709.4,757.1 1707.2,757.5 1705.2,762.9 1705.3,771.3 1702.2,770.7 	"/>
	<polygon class="st0" points="1734.4,813.2 1721,816.1 1714.1,823.6 1715.1,825.3 1720.7,820.8 1726.1,824.1 1733.5,832.8 
		1735.3,830.6 1733.7,826.5 1735.9,822.9 1738.6,826.3 1740.3,823.8 1737.2,811.5 1733.9,809.5 	"/>
	<polygon class="st0" points="1728.4,795.1 1734.4,798.6 1732.9,792.9 	"/>
	<polygon class="st0" points="1888.6,888 1890.3,891.6 1890.6,887.9 1885,883 1877.7,880.1 	"/>
	<polygon class="st0" points="1763.6,668.7 1760.8,676.8 1764.2,678.4 1768.2,675 1769.7,662.3 1766.6,662 1759,663.9 	"/>
	<polygon class="st0" points="1840.1,543 1837.9,531.6 1832.4,495.4 1826.1,515.6 1829.2,525.2 1828.8,539.9 1827.3,547 
		1828.1,561.5 1827.6,569.3 1832,564.2 1836.2,569.8 1837,567.1 1831.1,554.4 1834.3,543.1 	"/>
	<polygon class="st0" points="1818.9,591.6 1815.9,597.1 1817.5,606 1818.5,599 1827.2,597.2 1835.3,601.3 1844.6,593.9 
		1848.1,592.4 1838.4,585.2 1835.4,583 1827.7,574 1826.2,574.9 1824.7,591 	"/>
	<polygon class="st0" points="1704,922.7 1707.7,922.2 1703.2,918 1697.6,918.4 	"/>
	<polygon class="st0" points="1767.1,656.6 1765.1,659.5 1772.1,660.4 1772.6,657.7 1784.5,656 1784.6,656 1784.6,656 1790.7,655 
		1792.3,662.8 1798.8,652 1806.4,655.2 1808.6,651.8 1814.8,651.4 1816.2,653.1 1821,646.5 1820.2,645 1822.1,630.2 1828,619.5 
		1823.7,606.4 1818.9,607.4 1815.6,617.5 1816.7,617.7 1812.4,631.2 1801.6,640 1794.1,647.7 1777.8,648.5 	"/>
	<polygon class="st0" points="1871.5,900.3 1877.5,899.5 1884,896.2 1884.3,889 1878.9,895.4 1864.6,895.7 	"/>
	<polygon class="st0" points="1849.4,892 1836.6,884 1822.4,879.4 1822.2,879.4 1822.2,879.4 1820.9,879.4 1804.2,873 1790.4,883.7 
		1785.2,880.6 1776.1,866.9 1767.3,869.3 1773,877.3 1780.9,879.5 1773.1,879.8 1772.7,881.3 1778.3,887.6 1781.7,881.9 1782.2,886 
		1805.7,895.6 1808.7,904 1811.5,907.7 1810.2,911.2 1816.9,910.2 1821.9,916.3 1822.2,916.5 1822.2,916.5 1823.1,917.1 
		1835.4,913.9 1844.9,909 1850.9,910.5 1859.6,921.1 1876.2,925.3 1873.5,919.8 1860.5,909.4 1861.1,900.8 1849.3,895.3 	"/>
	<polygon class="st0" points="153.9,460.5 146,462.5 145.7,470 155.1,465.6 	"/>
	<polygon class="st0" points="1662.2,224.9 1665.6,218.5 1654.9,219.5 	"/>
	<polygon class="st0" points="1125.3,467.8 1130.2,460.4 1124.8,463.3 	"/>
	<polygon class="st0" points="1116.8,470.2 1115.7,476.5 1118.7,466.2 	"/>
	<polygon class="st0" points="1105.7,486.5 1107.5,489.2 1107.8,488 	"/>
	<polygon class="st0" points="1097.1,493 1099.7,495.5 1097.6,492.4 	"/>
	<polygon class="st0" points="1310.6,720 1312.9,720.5 1313.7,720.3 1312.9,710.8 1310,715.5 1310.5,719 1310.3,719.4 	"/>
	<polygon class="st0" points="944.7,374.5 938.2,360.6 933.7,358.1 928.3,354.5 925.5,359 917.9,360 915.3,359 911.6,363.9 
		906.3,360.9 901.8,370.9 898.9,365.1 901,363 890.7,356.6 887.1,360.3 885.6,366.6 887.9,368.6 891.9,367.1 897.9,368.9 
		897.6,374.3 890.7,375.5 889.3,377.3 897.3,381.5 893.1,389.9 901.8,388.9 907.2,393.9 916,395.8 938.8,382.8 	"/>
	<polygon class="st0" points="1229.4,713 1229.6,713.6 1229.6,712.7 	"/>
	<polygon class="st0" points="1231.4,715.6 1230.5,714.5 1229.3,713.7 	"/>
	<polygon class="st0" points="308.8,532.9 299.8,530.4 305.7,539.2 303.5,541.2 312.6,545.2 315.8,549 321.2,547.5 320.9,547 
		321.1,547 320.3,545.5 320.5,546.5 317.9,542.9 312.6,539.3 	"/>
	<polygon class="st0" points="609.1,752.1 610.8,757.4 599.1,758.1 602.8,760 614,760 614.5,760.5 613.2,757.1 614.4,750.5 
		614.1,750.6 605,750.4 	"/>
	<polygon class="st0" points="614.4,750.5 613.2,757.1 614.5,760.5 614.8,760.7 632.1,759.4 633.9,757.1 624.7,750.7 614.6,750.3 	
		"/>
	<polygon class="st0" points="639.8,1230.4 635.8,1225.7 632.6,1217.5 632.3,1217.1 632.2,1230.4 632.2,1233.1 632.1,1238.2 
		632.3,1238 646.2,1239.4 651.4,1236.1 	"/>
	<polygon class="st0" points="616,1234.2 631.3,1238.2 632.1,1238.2 632.2,1233.1 632.2,1230.4 632.3,1217.1 632.1,1216.9 
		627.8,1215.6 622.1,1223.3 623.6,1228.8 629,1233.3 628.7,1235.3 	"/>
	<polygon class="st0" points="401.5,1024.6 400.9,1024.2 400.6,1024.5 	"/>
	<polygon class="st0" points="1086.9,493.1 1086.4,490.5 1084.5,491.7 	"/>
	<polygon class="st0" points="542,736.4 558,733 557.4,735.4 564.9,736.2 576.3,742.4 583.5,744.8 582.1,749.6 600.3,748.3 592,742 
		585.2,739.9 575.2,734.3 557.3,729.5 544.8,732.5 	"/>
	<polygon class="st0" points="514.7,782 514.6,781.9 514.4,781.9 510.7,784.9 510.4,785.9 511.1,786.2 517.4,788.5 521.3,789.2 
		523.2,788 523.3,787.9 523.4,785 521.4,784.4 	"/>
	<polygon class="st0" points="539.2,806.9 551,818 551.4,818.6 552.2,813.6 551,811.9 553.2,810 552.9,809.8 550,807.3 548.1,804.9 
		547.2,802.5 547,802.3 547,802.3 547,802.3 547,802.3 547,802.3 546.6,802.2 547.7,793 548.3,784.4 549.6,778.8 549.8,778.5 
		549.8,778.5 549.8,778.5 549.8,778.5 549.8,778.5 549.4,778.3 534.9,772.6 528.5,774 521.5,774.4 521,774.2 515.7,780.4 
		514.7,781.7 514.6,781.9 514.7,782 521.4,784.4 523.4,785 523.3,787.9 523.6,788 524.6,788 525.2,788.1 526.1,789.7 526.1,790.3 
		526.1,790.3 526,790.5 528.8,794.6 531,797.5 535.1,801.3 535.1,801.4 535.1,801.4 535.1,801.5 534.6,805.3 	"/>
	<polygon class="st0" points="583.5,334.5 584.7,343.2 593.8,341.7 595.6,336 595.2,328.7 592.3,327.4 	"/>
	<polygon class="st0" points="546.5,406.2 550.6,410.6 556.4,401.5 548.5,402.1 	"/>
	<polygon class="st0" points="448.3,298.8 438.6,291.8 436.5,292 428.2,281.8 428.5,271.2 426.5,266.1 422.3,248.3 417.4,243 
		411.6,241.2 407.4,244.8 412.7,267.6 410.1,271.8 407.6,270.3 404.5,255.4 397.4,247.2 393.6,246.7 396.2,253.4 390.7,259.1 
		389.1,251.4 380,246.9 371.7,254.6 371.1,239.5 354.5,250.1 349.9,261.9 346.4,267.3 348.7,272.1 353.5,271.9 352.4,276.7 
		365.7,273.9 367.1,274.6 349.9,284.1 354.3,290 367.3,290.5 385.4,293.1 382.4,296.8 371.3,295.4 360.2,297.7 357.1,303.8 
		362.8,311.4 374.3,312.8 376.9,319.3 382.3,324.8 400.4,321.9 411.9,316.8 417,309.7 424.3,315.3 425.2,318 434.5,319.8 440,318.5 
		440.3,309.2 441.8,303.1 448.9,305.3 	"/>
	<polygon class="st0" points="470.5,254 467.1,246.1 463.4,248.1 469.9,238.6 468.4,236.5 470.6,231.1 459,232.4 454.2,228 
		449,230.9 445.9,238.4 451.9,247.3 446.5,251.7 440.9,245.6 439.1,252.3 449.6,262 458.9,277.1 464.4,275.8 463.1,270.9 
		469.9,271.7 473.4,263 473.8,252.6 	"/>
	<polygon class="st0" points="508.9,229.6 492.9,223.5 484.1,225.1 481.8,229.3 482.6,233.3 478.9,235.9 479.5,251.1 481.1,256.4 
		488,265.2 490.7,255.3 487,251.5 498.9,251.6 	"/>
	<polygon class="st0" points="563.4,231.8 564.2,241.6 566,242.1 568.7,250.2 570.5,251.6 580,248.8 589.4,249.9 583.6,237 
		570.3,233.9 	"/>
	<polygon class="st0" points="468.7,306.5 466.2,302.9 460,317.8 464.2,320.9 473.5,325.2 479.1,320.8 475.2,311.3 	"/>
	<polygon class="st0" points="563.8,387.9 556.9,387.8 557.6,382.6 554.8,378.7 541.5,368.9 539.8,371.5 538,364.2 534.7,363.6 
		533.2,367.8 531.3,387.5 528.6,389.2 527.7,393.7 534.8,392 536.5,399.1 546.5,390.6 550.3,386.1 554,391.6 566.2,390.7 	"/>
	<polygon class="st0" points="1089,482.5 1086.2,482 1089.2,491.7 1093.2,481.6 1091.3,478.2 	"/>
	<polygon class="st0" points="669.4,352.5 670.1,346.8 660.3,349.6 664,343.6 659.5,342.5 657.7,337.9 652.8,335.5 650.6,337.1 
		644.2,328.5 642.1,331.3 641.5,326.5 628.9,318.8 634,319.2 636.2,312.8 643.3,313.7 639.5,309.2 636.4,309.4 636.2,308 
		636.3,308.1 637.2,306.6 636,306.8 635.7,304.4 640.5,303.9 636.7,295.9 630.8,301.4 631.4,297.2 626.2,297.4 633.8,291.8 
		624.8,286.3 618.6,291.9 620.2,287.2 609.5,286.5 617.6,279.4 616.2,275.4 608,271.6 603.4,273.2 600.7,276.5 601.8,270.3 
		595.9,279.5 600.3,265 595.3,264.5 595.8,261.5 591.4,255 583.3,251.9 579.1,252.9 577.4,259 568.4,262.4 562.5,267.4 564.2,257.3 
		560.7,260.6 566.1,251.3 564.3,244.5 561.9,242.1 558.6,233.1 552.6,232.4 545.5,236.4 546.2,238.7 539.2,240.3 537.4,257.9 
		541.5,263.3 537,261.7 534.2,266 537.4,271.2 541.3,273.2 538.8,280.9 530.3,283.4 537,279.6 538.9,276.6 532.4,267.6 531.5,255.9 
		529.9,251.4 533.2,241.8 538.7,230.8 533.9,229.9 521.3,235.1 515.3,244.7 514.6,250.6 511.7,258.1 512.8,262.8 510.8,266.6 
		512.7,276.1 522,279.6 527,283.8 514,282.5 517.5,291.8 531.4,292.8 532.5,298.8 542,300.5 558.8,301.5 562.5,305 566.8,300.6 
		569.9,302.3 574.7,298.9 571.1,293.3 573.5,290.8 576.3,295.3 580.4,296.6 581.4,303.1 585.6,304.3 590.2,310.6 587.1,317.2 
		596.5,317.7 599.4,323.4 602.6,321.5 602.5,325.7 607.1,330.6 609.9,337.4 611.1,345.1 607.3,351 599.7,358.4 604.3,368.4 
		593.3,373.2 591.4,371.9 582.2,372.8 578.1,380.1 585.6,385.1 600.6,379.9 605.1,380.7 606.5,384.5 616.7,393.6 613.2,395.6 
		623.2,403.8 627.1,404.1 629.7,408.2 645.8,414.8 643.5,405.8 631,391.4 649.6,402.5 654.7,402.1 651.8,391.2 654.6,397.5 
		655.7,390.9 649.6,384.3 652.5,382.5 644.3,375.4 643.4,377.5 639.7,370.2 631.6,358.5 636.8,361.8 636.5,354.7 639.4,356.9 
		641.6,352.5 648.2,361.4 653.7,361.1 650.7,363.8 653,369.9 659.2,373.5 662.2,371.9 660.5,365.8 661.6,363.4 664.4,366.5 
		667.7,363.6 666.8,355.6 670.7,356.9 	"/>
	<polygon class="st0" points="703.8,522 696.9,529.5 691.4,542.2 685,554 686.3,557 699.9,556.8 706.4,557.9 715,555 714.8,561.1 
		720.3,564.7 722.8,556.6 720.3,558 721.3,553.2 717,552.8 720.7,549.3 717.5,542.1 709.5,542.6 703.5,540.9 705.8,536.4 
		702.6,535.3 699.5,537.6 707,522.3 	"/>
	<polygon class="st0" points="91.4,438.8 95.3,438.3 100.8,434.5 104.2,446.5 103.6,452 108.3,449.2 116.7,450 119.5,454.3 
		122.1,449.4 131,448.2 127.6,454.8 126.4,463.4 111.8,476.3 111.6,481.5 108.1,479.8 100.2,483.5 94.9,488.3 102.3,487.5 
		105.3,483.2 114.6,481.1 115.8,483 123.2,477.4 121.8,476 132.2,469 134.9,464.5 141.9,458.4 146,457 150.8,450.5 146.9,446.4 
		148.7,442.5 155.2,436.6 160.5,426.1 166.8,421.5 173.4,425.5 162.8,428 159.8,439 164.9,445.1 176.9,437.1 180.4,433.5 
		179.7,426.8 183.1,422.5 184.1,425.1 190.8,423.5 190,426.9 207.2,436 219.7,436.8 249.1,454.8 244.8,449.1 248.9,447.2 
		250.5,454.4 255.1,454.9 254.7,449.5 264.9,462.5 264.2,467.4 267.9,468.7 272.4,475.6 275,477.3 271.2,482.3 280.4,491.5 
		280.6,491.7 280.8,491.9 281.9,491.3 282.7,490 282.6,489.2 282.6,488.9 283.5,485.4 283.2,484.2 283.4,481.1 283.7,480.6 
		269.4,463.9 259.9,449.4 251.5,439.6 251.5,439.6 259.9,449.4 269.4,463.9 283.7,480.6 283.7,480.6 284.1,488.6 282,501.9 
		286.9,505.5 288.6,503.7 292.2,507.4 295.1,513.5 296.2,521.7 299.4,528 306.7,529.8 312.1,534.8 312.1,534.9 312.4,535.8 
		312.3,535 315.6,538.1 318.9,534.8 324.6,544.6 324.8,544.9 481.6,544.9 484.4,546.8 491.8,548.2 491.8,548.1 497.6,551.1 
		511.5,553.4 540,562.6 547.3,571.5 553.2,575.3 553.6,595.9 553.6,595.9 553.2,575.3 547.3,571.5 540,562.7 511.5,553.5 
		497.6,551.1 491.8,548.2 484.4,546.8 481.6,544.9 324.8,544.9 325.2,546.1 326.3,552.7 326,552.1 325.4,551.9 326.4,553.4 
		327.3,558.7 325.6,559.5 324.9,552.2 314.1,551 318.2,566.5 317.5,567.8 315.4,593.8 315.9,600.7 319.6,624.7 326.4,632.9 
		330,638.8 330,643.1 337,651.9 337.9,656.1 355,664.1 356.9,669.2 356.9,669.2 369.9,668.1 372.6,670.4 391.5,677.3 407.5,677.3 
		407.5,677.3 391.5,677.3 372.6,670.4 369.9,668.1 356.9,669.3 357.3,670.5 363,680.8 363.4,683.3 370.9,692 373.3,699.6 368.8,700 
		377,707.2 385,712.3 385.6,719 395.3,726.7 397.8,731.2 400.7,727.5 393.6,722.2 393.5,718.9 389.8,711 379.2,693.9 371.1,682.7 
		369.4,673.5 380.1,678.3 379.7,680.8 394.1,700.3 395.8,704.4 401.9,709.5 400.7,711.6 414,724.2 424.4,742 422,746.4 434.6,758.8 
		442.8,760.9 449.4,765.5 462.6,770.8 475.7,774.4 483.4,770.1 488.7,772.3 498.1,781 498.3,781.2 498.3,781.2 500.6,783 
		504.4,784.8 507.5,784.8 508.2,784.9 510.4,785.9 510.7,784.9 514.4,781.8 514.6,781.9 514.7,781.7 515.7,780.4 521,774.2 
		518.9,772.9 519.3,773.5 518.9,774 517.5,773.4 517.2,773.3 517.2,773.3 517.1,772.9 520.5,768.9 521.1,763.6 520.3,758.6 
		520.6,758 520.6,758 520.7,757.7 523,759.1 529.3,741.8 525.3,739.8 508.9,742.6 506.7,752.7 501.9,758.1 500.3,756.9 485.1,759.7 
		475.2,752.7 469.2,742.1 466.3,732.8 467.4,721.8 470.3,713.3 470.4,712 459.8,709.2 446.3,687.7 439.3,687.7 439.3,687.7 
		446.3,687.7 459.8,709.2 470.4,712 470.4,711.6 469.2,703.4 470.5,700.4 469.5,702.1 469.2,703.3 468.8,700.1 481.7,692 482.4,688 
		485.3,689 498.1,689 501.5,687.7 505.3,691.3 511.6,689.6 512.4,686.5 508.6,685.1 522.8,682.4 523.5,684.1 531.1,682.8 
		537.6,687.4 546.8,686.5 552,692.2 551.6,700 555.7,707.5 555.4,707.3 555.9,708.3 555.7,707.6 557.4,710.8 561.4,715.7 565,716.6 
		567.1,710.9 566.4,704.1 561.5,689.6 559.1,680.3 565,670 583.1,655.2 587.8,652.5 584.5,648.7 590.2,647.6 587,645.8 591.5,644.7 
		587.6,633.5 588.8,627.7 591.9,631.4 599.1,621.5 602,614.2 601.2,611.8 601.2,611.7 601.2,611.7 601.1,611.5 608.3,607.2 
		615.8,606.3 620.7,603.8 624.9,603.8 618.6,599.1 620.1,594.4 630.4,583.3 632.9,583.7 641.6,579.5 640.8,577 640.8,576.8 641,577 
		656.8,571.4 647.1,581.6 646.5,587.6 651,588.7 667,579.4 675.4,575.8 670.6,572.4 667.2,573.1 658.2,569.9 654.9,567.1 
		653.4,558.7 657.4,546.5 655.3,543.9 646.2,543 633.4,548.8 621.5,561.5 615,564.7 605.4,572 604.5,574.4 598.6,577.8 597.8,578.1 
		597.8,578.1 599.8,576.5 603.3,572.7 603.5,573.4 604.2,572.5 603.4,572.7 607.6,568.3 617.3,563.5 625.8,552.6 618.7,549.5 
		627.1,551.3 639.4,541.8 641.9,536.2 647.5,533.5 667.9,533.7 671.5,535.2 683.5,531.7 689.7,524.5 700.9,521 705.7,515.8 
		705.1,506.8 703.3,503.2 696.9,502 695.9,497.6 680.7,504.1 681.2,501.5 689,498.7 695.1,495 694.7,492.9 684.5,488.9 683,486.8 
		677.8,488.9 678.1,482.2 669.9,474.8 667.8,471.4 673.5,472.5 667.2,457 662.8,458.5 666.6,453.5 662,453.7 665,451.3 658.9,443.5 
		657.5,436.9 653.3,433.7 652.7,439.2 649.8,447.6 637.6,458.5 636,453.6 632.5,458.2 633.2,449.7 623.6,450.4 627.9,444 626.3,444 
		626.6,424.5 615.7,422.6 603.9,407.6 598.2,411.8 591.6,411 585.5,406.8 581.3,406.7 579,415.2 579.5,425 581.4,427.3 583,436.1 
		582.5,441.4 577.7,447.4 582,456.5 585.8,462.3 587.3,475.8 586.1,479.5 580.8,486 569.6,492.4 576.3,515.8 569.3,526.1 565,524.4 
		563.7,519.9 558.8,514.7 554.7,508.1 555.5,500.3 554.1,497.5 554.1,488.8 524.8,478.9 521.9,474.7 512.2,469.4 504.6,466.6 
		496.9,467 492.9,450.8 487.9,450.4 482.8,447 483.8,444.8 483.9,430.9 489.9,417.9 490.6,413.9 494.5,410.6 493,408.7 497.5,403.7 
		506.5,401.2 503.4,394.5 500.5,392.1 498,393.8 490,386.3 498.5,391 506.3,393.5 514.3,387.6 518.6,388 528,373.5 516.8,370.3 
		512.2,365 505.2,361.8 511.3,362.2 522.5,370.3 526.3,370.2 533.9,359.6 529.5,354.1 539.8,357.5 546.2,358 543.2,350.2 
		547.3,355.9 559.4,346.1 559.3,337.7 553.2,325.4 560.4,322.2 558.1,318.7 560.2,314.9 555,312.6 554.2,306.5 541.3,303.1 
		537.1,313.1 538.7,314.1 533.8,331.6 526.5,344.4 522.3,337.9 523.1,328.2 522.5,321.4 516.3,312.5 514.6,313.2 509.8,328.3 
		508.2,310.9 509.4,312.4 509.8,310.1 508.2,310.9 508,309.7 494.6,306 501.8,298.1 494.5,285 494.2,279 489.3,270 481.4,267.5 
		478.7,274.7 476.5,276.3 473.8,295.1 477.1,303.8 487.3,309.6 485.5,320.8 489.6,317.3 491.4,322.8 484,331.2 480,331.9 
		481.1,343.3 477.5,350.8 474.9,347.2 480.2,344.8 474.8,339 476.5,328.7 466.5,324.1 463,331.3 467.8,337.8 461.5,332.8 459,336.4 
		434.5,330.5 428.7,331.3 423.4,325.3 420,318.3 404.9,328 410.3,329.6 421.4,322.9 417.7,327.9 410.1,331.8 408.9,336.3 
		413.6,348.8 411.3,352.6 406.2,346.2 409.2,345.2 404.9,338.2 395.3,333 383.6,337 375.3,336.7 367.4,334.2 368.3,330.3 
		374.6,327.6 371.2,320.8 366.5,317.7 362.1,319.2 351.5,316.1 347.1,312.7 341.5,311.3 330.8,303.9 323,304.9 320.1,310.8 
		315.3,310.4 315.4,298.7 314.3,298.2 311.3,309.9 306.2,309.3 298.8,294.4 295,291.1 297,296.2 280.1,309.1 273.7,309.9 
		268.2,317.2 267.9,313.5 273.3,308 278.4,306.6 285.9,300.6 284.4,298.8 274.9,302.5 267.3,306.7 265.9,309.8 260.7,307.8 
		251.6,311.8 250.3,315 254.2,321.6 243.7,317.6 231.7,308.5 222.2,306.6 221.4,306.3 221.4,433.1 240.8,445.3 241.2,448.7 
		241.1,448.7 240.7,445.3 221.4,433.1 221.4,306.3 220.9,306.2 208.8,298.6 202,299.9 187,297.8 171.1,292 159.3,293 156.3,289.6 
		157.6,286.9 152,284.8 143.1,285.4 143,282.7 138.6,285.4 138.3,280.4 133,277.6 125.4,286 117.4,285.7 112.9,290.6 103.5,297.3 
		102.9,295 96.8,304.6 93.5,314.1 85.8,318.3 78.3,318.6 77.9,323.5 79.7,329.9 83,331.6 93.5,345.6 103.8,346.8 102.9,349.9 
		105.6,353.5 111.5,352.7 112.2,355.4 104.5,354.9 100.7,348.3 98.7,348.6 105.3,357.4 102.6,360.7 92.6,360.1 91.4,356 87,353.5 
		77.2,359.3 67.6,366.1 71.5,369.3 78.3,370.9 77.1,376 84.4,382.1 92.5,380.5 95.7,382.6 107.5,376.3 109.1,390.5 105,395 
		100.6,394.2 98.7,397.5 93.7,399.6 90.2,397.6 86,403.4 78.9,419.1 82.4,424 83.2,430.4 87.1,433.1 	"/>
	<polygon class="st0" points="925.3,740.4 924.8,743.6 925.1,743.9 925.6,740.7 927.3,739.9 925.3,740.1 	"/>
	<polygon class="st0" points="992.3,471.8 991.1,479.9 994.6,480.1 993.2,489.6 1002.4,489.8 1003,497 1005.6,497.5 1004.5,503.9 
		998.5,506.7 997.9,515.5 992,519.2 1003.2,523.7 990.3,534.4 1001,534 1005.4,529.7 1010.3,530.8 1013.6,530.4 1014.5,530.9 
		1015.6,530.2 1023.6,529.2 1029.9,523.9 1029.1,519.5 1031.3,511.1 1027.3,509.2 1022.2,509.7 1023.9,507.3 1020.2,502.2 
		1021,498.5 1013.8,489.2 1006.1,474.5 1011.3,462.8 1003.2,461.7 998.4,463.1 1004.2,453 991.2,457.9 992.5,459.6 989.4,470.7 	"/>
	<polygon class="st0" points="969.1,522.7 986,515.8 987.6,507.9 986.8,498.7 986.6,498.4 987.2,498.7 987.1,487.3 981.1,488.9 
		980.9,488.5 976.2,494.3 976.2,494.3 980.9,488.5 981.2,488.1 974.9,488 975.2,494.3 965.9,502.8 967.5,506.2 963.2,519.9 
		967.4,519.2 	"/>
	<polygon class="st0" points="416.6,233.1 417.1,238.7 424.1,248.4 427,243.6 428.3,236.2 425.1,232.1 	"/>
	<polygon class="st0" points="322.4,281.4 328.4,278.9 330.7,275.8 338.1,272.4 339.6,261.8 343.4,260.1 346.5,252.9 366,238.7 
		366.8,237 356.5,223.3 350.9,221.3 342.1,224.5 332.1,215.5 314,219.6 318.6,230.4 310.1,257.8 307.9,266.4 317.9,271.6 	"/>
	<polygon class="st0" points="1155.1,625.1 1160.2,630.1 1154.8,624.3 	"/>
	<polygon class="st0" points="1076.1,600.4 1075.7,595.4 1071.3,597.4 1072.4,605.3 1074.4,605.7 	"/>
	<polygon class="st0" points="1064,587.9 1063.8,588.2 1064.1,588 1064.1,588 	"/>
	<polygon class="st0" points="1070,615.7 1069.7,622.5 1076.5,621.4 1076.6,610.1 1074.6,607.7 1068.7,609.9 	"/>
	<polygon class="st0" points="1093,633.6 1107.1,640.5 1110.3,629.7 1092.8,631.7 	"/>
	<polygon class="st0" points="1078.4,463.1 1075.4,467.3 1069.3,484.4 1071.1,489.6 1071.1,490.4 1072.4,490.5 1074,491 
		1077.2,491.2 1077,490.2 1076.3,484.5 1083.5,474.1 1080.3,469.2 1081.7,464.5 	"/>
	<polygon class="st0" points="1082.3,483.4 1077.9,485.9 1082.2,488.9 	"/>
	<polygon class="st0" points="1090.7,490.3 1093.1,489.8 1091.8,489.1 	"/>
	<polygon class="st0" points="1214.5,651.4 1211.8,650.1 1208.9,649.7 1208,651.2 1207.6,651.2 1207.3,651.1 1206.4,654.4 
		1207.5,654.8 1215,652.1 1214.9,652 1214.9,652 	"/>
	<polygon class="st0" points="1171.8,621.6 1169,621.9 1172.6,624 	"/>
	<polygon class="st0" points="566.3,880.5 567,881.4 567.7,879.7 	"/>
	<polygon class="st0" points="2034.9,309.5 2026.3,306.4 2019.7,302.2 2011.5,302.5 1989.8,298.8 1987.9,306.7 1990.3,307.4 
		1992.7,316.1 1990.1,319.5 1983.7,318 1977.4,312.5 1973.6,304.9 1970.4,307.9 1955.9,307 1948.4,305.3 1939.2,310.6 1939.4,308.8 
		1936.6,313.6 1938,317.1 1937.9,318.3 1936.1,315.2 1934.4,306.3 1928.7,302.7 1930.3,295.4 1929.1,290.4 1919.1,282.9 
		1906.9,281.9 1895,285.7 1887.7,286.5 1883.5,283.9 1880,277 1874.8,278.9 1876.9,274.4 1868.1,269.4 1872.1,264 1864.4,259.9 
		1858.9,259.4 1849.7,270.3 1845,270.2 1845.4,267.1 1849.4,266.8 1849.6,261.6 1843.8,258.6 1852.1,259.2 1841.1,253.7 
		1821.3,248.9 1822.8,254.8 1812,262.7 1815.8,263 1815,271.2 1816.6,274.9 1812.2,275.7 1806,273.6 1791.5,272.8 1783.2,276.9 
		1777.7,272.8 1775,267.1 1773.1,270.7 1768.1,286.6 1765.7,288 1758.6,281.5 1747.5,257.6 1753.9,264.2 1754.9,256.7 1751.7,256.5 
		1755.6,251.2 1747.1,237.4 1743.1,236.1 1740.3,240.3 1730.4,232.7 1721.9,236.3 1722.4,240 1720.2,247.5 1718,246.3 1708.8,248.1 
		1697.2,244.6 1694.2,242 1694.3,235.2 1676.7,232.9 1666.3,236.9 1666.1,239.9 1664.3,237.8 1665.3,232.8 1663.1,230.2 
		1653.8,229.2 1653.3,227.5 1644.5,230.9 1650.8,233.2 1644.3,237.9 1642.6,237.3 1633.6,243.5 1625.5,244.8 1621.8,247.6 
		1624.7,240.8 1627.5,240.4 1630.9,234.6 1636.2,233.1 1648.5,217.1 1663,205.3 1666.9,199.1 1661.3,186.8 1666.2,193 1666.6,185.5 
		1665,177 1661.4,181.7 1661.3,173.9 1654.3,166.5 1642.8,164.9 1638.6,165.6 1634.5,169.3 1627.3,169.3 1631.8,160.5 1630.9,158.9 
		1622,158.6 1621.7,156.1 1613.5,156.1 1624,148.7 1609.8,142.3 1604.4,145.6 1598.2,153.6 1596.3,157.9 1595.3,170.3 1591.4,171.5 
		1588.3,182.3 1582,177.2 1575.4,183.4 1569.7,185.5 1566.5,184.7 1566.4,180.3 1558.8,179.4 1550.4,182.4 1552.2,185.3 1556,185 
		1533.9,192.4 1519.6,202.8 1513.8,212.5 1508.9,213.3 1517.1,219.3 1510.1,220.3 1514.1,222.8 1519,230.7 1509.8,237.9 1516,230.5 
		1513.5,229 1507,232.3 1502.9,231.7 1484.4,234.2 1479.4,235.6 1480.8,247.8 1479.8,252.4 1483.3,259.1 1486.2,259.7 1495,268.9 
		1496.2,272.1 1495,283.8 1497.3,291.4 1491.6,295.8 1493.1,285.4 1488.8,283.6 1494.4,271.8 1487.9,271 1472.8,258.6 1462.6,262 
		1465.8,267.4 1462.2,268.6 1455.7,265.6 1453.5,267.4 1455.1,273.1 1467.5,283.1 1462.4,280.7 1451.8,278.9 1449.3,276 
		1449.2,266.5 1451.9,260.2 1448.5,249.7 1448.2,260.9 1440.1,268.5 1439.6,279.8 1443.9,290.9 1441,297.7 1440.7,313.6 
		1444.1,314.5 1453.4,313 1462.7,318.3 1464.7,328.3 1462.4,336 1469.9,338.4 1463.4,338.7 1460.4,333.2 1459.7,323.1 1456,317.1 
		1445.3,320.7 1446.4,335.8 1440.8,347.2 1433,353.4 1425.8,356.2 1421.2,356.5 1415.9,354.1 1414.1,349.8 1421.5,352.8 1428.8,348 
		1434,338.5 1439.7,324.9 1434.1,309 1433.7,297.7 1434.8,286.7 1429.9,275.5 1432.8,269 1434.9,259.4 1435.3,252.8 1431.2,250.1 
		1417.1,247.2 1413.8,253.2 1409.5,271.5 1401.8,278.6 1400.6,286.7 1403.9,288.1 1401.1,304.9 1408.3,310.1 1412.3,318.1 
		1410,327.5 1402.3,318.8 1381.6,305.9 1368.3,303 1364.1,306.3 1367.8,317 1361.8,323 1360.3,326.9 1357.4,325.5 1356.4,316.7 
		1348,322.4 1336.5,323.6 1333.3,329.2 1324.3,328.2 1328,324 1330.6,317.4 1321,321 1305.4,331.3 1298.3,334.2 1299.1,337.1 
		1293.7,338.5 1291.5,348.1 1287,349.6 1277,340.1 1280.4,335.9 1286.9,332.7 1282.4,324.9 1268.3,322.9 1272.9,328.4 1270.5,343.4 
		1273.3,345.6 1272.3,361.2 1269.1,356.8 1261.5,354 1247.6,368.9 1251.3,378.3 1243.6,378.8 1237.7,376.6 1234.9,373.5 
		1229.3,375.8 1232.2,381.8 1236.2,383 1237.4,388.8 1228,387.7 1224.3,383.3 1219.9,380.9 1217.2,369.6 1218.8,362 1212.5,356.8 
		1205.8,344.9 1209.3,348.4 1223.5,355.8 1235.5,359.5 1241.3,360.4 1249.6,357.1 1256.2,348.3 1254.5,336.6 1246.5,331.2 
		1225.5,313.7 1207.2,309 1204.6,306 1209.3,305.2 1203.5,301.4 1198.2,304.4 1197.1,304.2 1196.3,304 1191,305.1 1185.3,298.2 
		1191.8,299 1197.6,296 1195.6,291.8 1187.1,286 1183.3,292.2 1182,290.9 1183.1,284 1176.7,285.1 1178.3,286.6 1175.1,292 
		1173.2,284.6 1165,298.3 1165.4,291.3 1168.2,286.8 1160.6,285.5 1154.3,297.1 1154.5,300.9 1150.7,294.3 1138.9,302 1139.6,308.5 
		1137.3,301.5 1133.4,310 1133.8,304.2 1130.9,304.8 1127.6,309.8 1128.9,311.8 1122.4,315.2 1116.4,322.7 1118.9,326.6 
		1114.9,326.3 1105.9,335.1 1110.4,342 1104.7,343.2 1101.5,346 1096.1,355.3 1093.9,361.3 1092.7,361.6 1092.9,362.7 1093.7,361.8 
		1090.7,370.1 1087.1,375.3 1087.9,377.5 1076.2,392 1069.6,394.1 1070.6,397 1063.8,400.6 1063,404 1057.9,405.7 1059.2,408.2 
		1051.1,411.2 1050.2,414.4 1052.2,419.3 1051.9,434.2 1054.2,435.2 1051,445.3 1055.7,444.4 1053.6,451.9 1061.7,458.4 
		1070.3,455.4 1081.1,444.7 1086,446.8 1092.4,470.1 1095.2,474.2 1095.4,484.7 1097.5,486 1103.3,484.2 1102.9,480.6 1112.3,477.7 
		1115.9,460.6 1115.4,452 1127.6,444.1 1123.9,443.8 1129.2,439.6 1128.6,435.7 1124.2,430.7 1119.8,428.5 1121.1,417 1120.7,407 
		1126.7,402.2 1127.9,398.7 1136.6,392.5 1144.1,382.1 1144.3,369.5 1148.9,363.5 1157.5,364.3 1159,364 1159,364 1159.5,363.9 
		1165.2,367.6 1165.3,373.1 1148.6,397 1144.2,398.3 1142.9,409 1143.2,424.4 1148.2,432 1151.9,434.2 1152.6,438.6 1155.1,436.7 
		1169.7,432.7 1169.2,431.1 1179.5,430.5 1179.7,430.4 1197.5,409.2 1198.9,398.3 1198.9,398.3 1197.5,409.2 1179.7,430.4 
		1181.9,430 1186.9,434.4 1190.6,434.4 1193.1,437.7 1187.4,436.6 1181.2,439 1181.2,441.6 1180.9,442.4 1181.7,443.6 1178.7,448.7 
		1181.7,443.6 1180.9,442.4 1180.8,442.5 1166.7,440.6 1155.3,445.6 1155.7,452.4 1160.4,454.5 1160,459.6 1160,460 1160,460 
		1159.8,460.9 1157.7,469.1 1156.1,469.5 1145.2,463.2 1143.7,465.8 1141.2,476.8 1141.4,478.7 1147.3,475.3 1147.3,475.3 
		1141.4,478.7 1141.4,479.2 1141.5,481.3 1142.3,486 1142.4,486.8 1142.4,486.8 1151.5,491 1151.5,491.1 1142.4,486.8 1142.4,488.4 
		1138.8,489.6 1140.3,487.6 1140.9,486.7 1141.3,486 1141.7,484.6 1141.2,485.5 1140.5,486.6 1140.2,487.2 1137.7,489.9 
		1134.6,493.1 1134.1,493.9 1133.2,494.8 1133.2,494.8 1132.9,495 1124.6,491.1 1115.9,493.9 1102.8,499.9 1102.6,499.7 
		1102.6,499.7 1101.6,498.9 1100.4,498 1101.6,500.5 1102.3,500.4 1102.6,500.5 1102.6,500.5 1103.3,500.6 1104.5,500.9 
		1104.1,502.4 1102.8,501.8 1102.8,510.8 1102.8,501.8 1102.8,501.8 1095.8,495.2 1093.3,494.7 1077.2,491.4 1077.2,491.2 1074,491 
		1072.4,490.5 1071.1,490.4 1071.2,491.5 1072.4,496.7 1068.7,504.5 1063.2,502.3 1062.5,505.7 1062.7,506.1 1061.9,505.9 
		1050.6,509.1 1043.6,523.5 1045.4,523.6 1048.2,523.4 1044.8,525 1045.2,523.9 1044.7,523.6 1043.9,524 1041.3,523.6 1040.9,523.8 
		1044.8,525 1044.8,525 1040.9,523.8 1040.2,524 1038.7,524.8 1036.2,526.3 1036.2,526.3 1035.8,526.6 1032.7,527.3 1030.7,533.5 
		1022.9,538.7 1021,542.3 1011.3,538.9 1013.7,547.9 1006.6,548.8 995.1,548.8 998.8,554.7 1007.7,559.2 1010.7,559.2 1014,567.2 
		1014.8,580.8 1012.6,590.5 1011.7,590.7 1020.2,595.3 1029.6,596.3 1030,597 1030.2,596.8 1030.8,596.7 1031.6,597 1031.6,597.6 
		1031.6,597.6 1031.6,597 1030.8,596.7 1030.2,596.8 1030,597 1029.9,597.4 1030.9,598.1 1030.9,598.1 1029.9,597.4 1030,597 
		1029.5,596.3 1020.2,595.3 1011.7,590.7 1011.5,590.8 999.8,590 996.2,590.7 988.7,588.9 971.5,591.3 969.8,592.5 971.6,602.2 
		972.1,602 972.1,602 971.5,602.9 969,621.1 971.9,629.9 970.8,638.2 979.3,637.2 979.8,637.1 979.8,637.1 981.2,636.9 991.6,643.8 
		997.1,640.4 1006.1,640.4 1016.6,634.3 1018.2,630.1 1022.8,625.3 1021.5,617.5 1025.9,610.5 1038.9,603.4 1040.3,598.8 
		1040.1,598.3 1036.5,599 1035.4,598.6 1032.4,598.1 1031.6,597.7 1031.6,597.7 1032.4,598.1 1035.4,598.6 1036.5,598.9 
		1040.1,598.3 1040,598 1039.2,595.1 1045.5,590 1054.1,592.5 1059.2,592.3 1063.1,588.5 1063.8,588.2 1064,587.9 1064.1,587.9 
		1064.1,588 1064.4,587.9 1064.4,587.9 1065.8,587.7 1071.6,582.8 1080.1,587.3 1081.6,594.2 1096.2,607.3 1111,616.7 1113.9,624.4 
		1111.2,631.7 1113,631.7 1119,621.2 1116.5,615.6 1118.6,612.8 1126,618 1126.8,615.9 1102.4,597.7 1091.7,582.7 1091.6,574.5 
		1099.7,573.2 1099.8,573.4 1099.3,573.8 1099,574 1099,574 1098.6,574.3 1104.5,575.7 1114.9,589.7 1121.4,594.2 1114,584.5 
		1123.2,595.1 1122.5,595.1 1119.6,593.7 1126,597.6 1127,598.3 1127,598.3 1127.2,598.3 1127.7,598.7 1129.2,599.7 1130.8,602 
		1131.7,602.6 1131.7,602.6 1132.4,602.7 1131.9,610.8 1132.2,613.1 1135.4,618.1 1135.4,618.8 1137.2,617 1137.2,617 1135.4,618.8 
		1136,619.3 1143.8,628.9 1146.1,629.2 1142.3,632.5 1149.6,641.4 1152.4,638.3 1153.6,631.5 1156.6,632.1 1150.2,624.8 
		1152.1,624.4 1150.3,613 1154.3,616 1159.8,614.8 1156.8,611.1 1161.5,611 1161.1,611.8 1162.5,612.1 1161.8,611 1169.6,610.9 
		1169.7,611.2 1171.5,609.2 1171.4,607.4 1171.8,603.9 1171.3,603.8 1171.8,603.9 1171.4,607.4 1171.5,609.2 1169.7,611.2 
		1169.9,611.5 1174,612 1182.5,608.6 1180.8,602.7 1180.9,601.8 1180.9,601.8 1180.8,601.2 1177.9,598 1179.4,596.2 1184,590 
		1184.2,588.1 1174.3,584.9 1172.3,585.4 1151.2,584.5 1150.8,584.2 1150.6,584.3 1150.6,584.3 1150.8,584.2 1151.2,584.5 
		1172.3,585.4 1174.3,584.9 1184.2,588.1 1184.2,587.7 1186.1,579.7 1185.9,578.8 1190.4,576.6 1190.5,576 1186.7,575.6 
		1183.4,575.8 1182.7,575.3 1182.1,574.5 1182.1,574.5 1182.3,574.2 1191.7,563.6 1187.2,553.7 1179.8,549.9 1179.8,549.9 
		1187.2,553.7 1191.7,563.6 1182.4,574.2 1182.1,574.5 1182.7,575.3 1183.4,575.8 1186.7,575.6 1190.5,576 1190.7,575.4 
		1196.7,565.5 1201,565.5 1210.4,568.6 1206.4,574.9 1213,582.7 1221.1,579.7 1223.8,577.2 1228.5,577.6 1227.9,574.5 1222.1,574.5 
		1220.7,572.5 1221.9,566.4 1238.6,561.1 1238.8,561 1239.3,557.1 1248.7,551.1 1247.2,544.8 1249.6,542.7 1239.1,535.7 
		1239.1,535.7 1249.6,542.7 1247.2,544.8 1248.7,551.1 1239.3,557.1 1238.8,561 1240.4,560.3 1244,561.6 1236.5,565.7 1240.4,569.3 
		1229.8,576.6 1248.3,590.2 1248.8,590.6 1248.8,590.6 1250.1,591.5 1255.4,595.2 1257,595.9 1258.6,603.8 1257.5,605.3 
		1259.3,605.9 1268.5,608.2 1268.5,608.4 1268.8,608.3 1273,607.6 1277.2,607.1 1277.4,607 1278.6,606 1278.6,606 1277.4,607 
		1277.5,607.3 1277.4,607 1277.2,607.1 1273,607.6 1268.8,608.3 1268.5,608.4 1268.6,608.7 1271.3,616.5 1273.3,616.3 1275.8,618.5 
		1276,618.8 1276,618.8 1276.1,619 1276.3,619.2 1276.4,619.3 1276.3,619.2 1276.3,619.2 1276.1,619 1276,618.8 1275.8,618.5 
		1273.3,616.3 1271.3,616.5 1268.6,608.7 1268.5,608.4 1268.5,608.2 1259.3,605.9 1257.5,605.3 1257,606 1247.9,609.3 1242.4,609 
		1227.3,606 1221.5,601.4 1206.6,603.1 1196.8,608.5 1186.9,608.4 1191.3,611.2 1186.6,613.8 1173.7,613.7 1170.5,616.7 
		1170.1,620.6 1174.2,619.9 1171.6,627.2 1172.5,630.1 1178.2,637.2 1188.5,643.6 1199.9,639.8 1208.1,645.2 1213.2,644.2 
		1216.6,641.2 1221.6,641 1226,645.5 1225.7,646 1228.3,642.1 1225.7,646 1225.4,646.5 1224.9,648.4 1225.7,649.5 1225.7,653.4 
		1226.1,655 1226.1,655 1226.1,655.5 1224.3,657.6 1224.1,659.1 1221.5,665 1221.2,665.5 1222.9,665.6 1223.4,665.3 1225.4,663.3 
		1225.5,663.2 1225.8,662.9 1228.3,660.3 1227.9,654.6 1227.9,654.6 1228.3,660.3 1225.8,662.9 1225.5,663.2 1225.4,663.6 
		1225.7,665.2 1225.5,665.5 1225.1,667.6 1225.1,667.9 1225.1,667.9 1224.8,667.9 1224.1,668.2 1224.1,668.2 1224.8,667.9 
		1225.1,667.9 1225.1,667.6 1225.5,665.5 1225.7,665.2 1225.4,663.6 1225.5,663.2 1225.4,663.3 1223.4,665.3 1222.9,665.6 
		1221.2,665.5 1221,666.3 1219.5,671.5 1218.8,673.5 1217.7,675.5 1217.6,675.6 1216.9,677.1 1216.9,677.5 1216.3,678.1 
		1216.3,678.1 1216.9,677.5 1216.9,677.1 1217.6,675.6 1217.1,676.3 1216,677.3 1216,677.3 1215.9,677.5 1206.6,678.8 1198.3,675.5 
		1189,680 1176.6,677 1165.1,675.9 1164.7,675.1 1162.2,685.2 1163.7,735.3 1163.7,736.6 1163.7,736.6 1163.7,739.7 1163.7,748.7 
		1159.4,748.8 1158,751 1158,751.8 1158,754.5 1158,773.9 1153.8,774.4 1148.9,781.1 1148.1,788.3 1145.9,791 1151.9,801.6 
		1151.7,802.3 1151.7,802.3 1151.9,801.6 1145.9,791 1148.1,788.3 1148.9,781.1 1153.8,774.4 1158,773.9 1158,754.5 1158,751.8 
		1155.3,750.4 1125.4,734.5 1112.6,727.7 1109,729.5 1106.9,730.5 1107,730.7 1106.9,730.5 1100.6,731.1 1099.1,729.7 1092.8,728 
		1089.8,727.3 1089.8,727.3 1089.3,726.2 1082.6,720.9 1075.5,711.4 1075.5,711.3 1082.6,720.8 1089.3,726.2 1089.8,727.3 
		1092.8,728 1099.1,729.7 1100.6,731 1106.9,730.5 1109,729.5 1112.6,727.7 1125.4,734.5 1155.3,750.3 1158,751.8 1158,751 
		1159.4,748.8 1163.7,748.7 1163.7,739.7 1163.7,735.2 1162.2,685.2 1164.7,675.1 1164.5,674.7 1163.9,673.6 1153.2,669.8 
		1147.8,666.6 1136.1,671.3 1133.8,682.8 1130.4,684.3 1120.4,678.9 1113.4,677.7 1109.1,671.7 1100.4,667.5 1088.1,665.3 
		1087.2,664.9 1087.2,664.9 1086.6,664.6 1081.2,661.6 1079.8,656.9 1085,650.8 1085.1,639.3 1080.6,639.3 1077.9,636.6 1072,638.4 
		1070.6,638.8 1070.6,638.8 1068,639 1063,638.6 1043.3,639.1 1027.4,642.3 1010.4,651.8 1009.3,651.7 1009.3,651.7 1008.1,651.5 
		997.3,651.3 990.5,646.4 988.3,646.9 983.5,658.4 974.8,663.5 967,674.7 967,685.3 961.3,693 953.8,698.2 948.4,699.6 945.3,706.2 
		939.7,710.7 935.7,721.3 931.6,725.2 925.8,737.2 925.4,740.1 927.3,739.9 927.3,739.9 927.3,739.9 925.6,740.7 925.1,743.9 
		925.4,742.5 928.6,744.8 930.9,761.4 928,770.9 928,773.5 928,773.6 927.8,774.2 924.4,780.6 927.7,786.2 927.8,786.8 941.6,787.1 
		943.3,788.2 943.3,788.2 941.6,787.1 927.9,786.8 928,787.5 929,788.2 926.7,789.3 926.7,789.8 926.7,789.8 926.8,790.3 
		926.8,792.6 926.8,793.7 927,793.9 932,793.5 935.6,792 942,792.1 943.9,792.1 945.8,792.2 950.7,793.8 956.8,793.6 957.2,793.7 
		957.2,793.7 956.8,793.6 950.7,793.8 945.8,792.2 943.9,792.1 942,792.1 935.6,792.1 932,793.5 927,793.9 928.6,794.8 930.3,796.5 
		930.6,796.7 930.2,796.7 930.2,796.9 930.8,796.8 933.6,798.5 933.6,798.7 933.7,798.5 934.3,798.9 936.2,801.7 936.5,802.1 
		936.4,802.8 940,806.1 941.4,806.8 946.4,812.9 946.4,813 951.3,808.2 954.3,807.6 954.3,807.6 951.3,808.2 946.4,813 946.5,813.4 
		951.8,822.8 956.3,825.1 956.5,825.3 956.5,825.3 957.8,826.5 960.7,828.7 970,835.9 978.4,839.8 979,839.9 979,839.9 979.7,839.7 
		990.3,835.7 999.9,834.9 1004.7,835.3 1004.7,835.4 1006,834.3 1003.5,827.4 1006.6,810.8 1006.6,810.5 1006.6,810.5 1006.5,810.2 
		1005.5,804.6 1006.3,801.8 1020.2,800.8 1021.5,801.1 1021.5,801.1 1021.6,801.2 1021.5,801.1 1020.2,800.8 1006.3,801.8 
		1005.5,804.6 1006.5,810.2 1006.6,810.5 1006.6,810.8 1003.5,827.4 1006,834.3 1004.8,835.4 1004.4,835.4 1004.2,835.7 
		1004.4,835.7 1010.5,837.5 1017.4,834.9 1028.2,830.2 1028.6,830 1028.6,830 1029.3,829.6 1031.1,829.2 1031.1,829.2 1032.2,829 
		1034.9,828.6 1037.3,828.4 1037.3,828.4 1037.6,828.3 1045.3,828.1 1053.6,838.2 1057.5,839.7 1070.4,837.5 1070.4,837.6 
		1072.9,830.9 1084.8,827.6 1090.1,821.4 1092.3,815.6 1096.9,809.6 1099.7,802.5 1104.6,797.6 1102.3,792.4 1101.7,789.7 
		1101,788.7 1100,787.3 1099.1,786.1 1099.1,786.1 1100,787.3 1101,788.7 1101.7,789.7 1102.8,789.7 1106.2,793.1 1110.8,807.5 
		1110.8,807.5 1106.2,793.1 1102.8,789.8 1101.7,789.7 1102.3,792.5 1104.6,797.6 1099.7,802.5 1096.9,809.6 1092.3,815.6 
		1090.1,821.4 1084.8,827.6 1073,830.9 1070.5,837.6 1070.5,837.6 1074.7,842.2 1078.4,847.1 1077.7,850.2 1077.5,851.5 
		1077.5,851.5 1077.4,852.8 1076.3,855.8 1075.8,856.4 1076.4,858.6 1076.3,858.7 1076.3,858.7 1076.3,859 1077.5,864.3 
		1072.7,868.5 1076.8,878.3 1084.5,886.3 1085.1,886.8 1085.1,886.8 1086.4,888 1088.7,890.5 1089,891.6 1090,892.9 1090.1,893 
		1091.7,891.6 1092.2,890.8 1092.2,890.8 1091.8,891.6 1090.1,893 1090.2,893.2 1091,894.8 1091.2,895.6 1091.1,897.1 1091.2,897.3 
		1092.8,897 1094.7,891.5 1096,891 1096.1,890.9 1096,891 1094.7,891.5 1092.8,897.1 1091.2,897.3 1091.4,897.6 1091.8,898.1 
		1095.7,897.7 1096.1,897.9 1096.1,897.9 1095.7,898.1 1093,902 1094.7,904.1 1097.7,914 1096,915.9 1100.4,926.9 1099.1,934.8 
		1093.1,941.5 1088.8,961.7 1088.6,963.9 1098,962.5 1101.5,964.9 1126.3,964.8 1128.8,967 1143.2,968.4 1152.8,966.6 1153.5,966.5 
		1152.8,966.6 1143.2,968.4 1128.8,967 1126.3,964.8 1101.5,964.9 1098,962.5 1088.6,963.9 1088.4,965.2 1088.7,968.4 1101.2,991.1 
		1103.2,993.7 1104.9,1008.3 1109,1026.2 1114.6,1033.6 1115.3,1034.1 1118.7,1030.3 1120.9,1034.6 1130.7,1036.2 1135.3,1033 
		1135.3,1033 1130.7,1036.2 1120.9,1034.6 1118.7,1030.3 1115.3,1034.1 1115.4,1034.3 1122.2,1049.8 1125.3,1054.6 1123.4,1062.8 
		1128.8,1072.3 1135.6,1075.3 1145.6,1072.4 1171.9,1068.2 1192,1051.8 1199.8,1039 1206.6,1031.4 1208.4,1024.2 1208.6,1022.8 
		1208,1022.8 1205.6,1022.8 1204.7,1022.7 1204.2,1022.7 1204,1022.6 1203.3,1025.7 1199.4,1025.2 1199.8,1024.3 1199.4,1025.2 
		1203.3,1025.7 1204,1022.6 1204.2,1022.7 1204.2,1022.7 1204.2,1022.7 1204.2,1022.7 1204.2,1022.7 1204.7,1022.7 1205.6,1022.8 
		1207.9,1022.8 1208.6,1022.8 1208.6,1022.6 1206.9,1017.4 1214,1011.5 1221.5,1008.2 1223.4,999.8 1219.1,980 1229.3,971.5 
		1234.8,965.8 1242.6,962.7 1248.1,959.1 1252.9,950.2 1251.4,938.8 1251.9,924.9 1251.6,924.3 1240.4,929.7 1233.2,931.3 
		1221.6,930.7 1220.4,930.7 1220.3,930.5 1216.8,920.2 1214.9,918.7 1208.9,918.1 1208.8,918.2 1208.8,918.3 1210.9,926.5 
		1210.6,936.4 1207.9,942.2 1207.9,942.2 1210.6,936.4 1210.9,926.5 1208.8,918.3 1208.8,918.2 1208.4,918 1202.5,915.3 
		1202.1,915.3 1196.6,911.6 1196.5,911.2 1196.4,911.2 1196.3,910.7 1192.8,903.9 1188.5,892.9 1188.8,890.1 1188.8,889.8 
		1188.7,889 1187.7,885.5 1187.8,881.9 1186.6,880.2 1186.6,880 1186.1,879.8 1185.7,878.5 1185.7,878.5 1186.1,879.8 1186.6,880 
		1186.7,879.7 1186.7,879.7 1186.6,880 1186.6,880.2 1187.8,881.9 1187.8,885.5 1188.7,889 1188.8,889.8 1188.8,889.8 1188.8,890.1 
		1188.5,892.9 1192.8,903.9 1196.3,910.7 1196.5,911.2 1196.6,911.6 1202.1,915.3 1202.5,915.3 1208.5,918 1208.8,918.2 
		1208.9,918.1 1214.9,918.7 1216.8,920.2 1220.3,930.5 1220.4,930.7 1221.6,930.7 1233.2,931.3 1240.4,929.7 1251.6,924.3 
		1251.6,924.1 1245,912.6 1245.8,910.2 1242.6,900.5 1244.4,891.7 1244.6,891.2 1244.6,891.2 1244.6,891.1 1250.1,881.7 1252.6,879 
		1256.8,875.2 1257.7,874.2 1257.7,874.2 1258.2,873.5 1268.7,861 1273.6,856.7 1283.3,850.5 1298.1,833.4 1309.4,812.7 
		1310.8,806.1 1310.2,796.1 1300.4,800.2 1299.7,800.3 1299.7,800.3 1299.5,800.3 1277,805 1273.9,805.1 1268.5,799.8 1267.4,798.9 
		1266.9,799.7 1266.3,800.7 1265.6,801.8 1265.5,802 1264.7,803 1264.7,803 1265.5,802 1265.6,801.8 1265.1,801.8 1259.6,802 
		1259.2,801.9 1261.9,794.1 1261.9,794.1 1259.2,801.9 1259.6,802 1265.1,801.8 1265.6,801.8 1266.3,800.7 1266.9,799.7 
		1267.4,798.9 1266.9,798.5 1267.6,796.2 1268.3,794.9 1266.8,792.2 1266.7,791.9 1266.7,791.9 1266.5,791.2 1252.6,779.2 
		1246.2,775.4 1242.8,764.2 1241.1,760.7 1234.5,766.1 1231.9,766.6 1231.2,770.4 1231.9,766.6 1234.5,766 1241.1,760.7 
		1240.9,760.3 1234,754.2 1233.2,745.4 1231.3,738 1231.2,736.6 1231.2,736.6 1231.2,736.5 1224.6,730.8 1225.1,724.7 1221.7,721.3 
		1214.7,707.7 1212.3,699.7 1208,694 1206.3,686.5 1210.7,695.4 1213.6,698.7 1219.7,689.8 1220.1,689.5 1220.1,689.5 1220.4,689 
		1221.3,684.8 1221.6,682.6 1223,677.3 1223.1,676.3 1222.9,676.3 1220.8,675 1220.8,675 1222.9,676.3 1223.1,676.3 1223.2,675.7 
		1223.8,674.4 1223.6,672.9 1223.8,671.2 1223.7,670.2 1223.7,670.2 1223.7,670.2 1223.8,671.2 1223.6,672.9 1223.8,674.4 
		1223.2,675.8 1223.1,676.3 1223,677.3 1221.6,682.6 1221.3,684.8 1220.4,689 1220.5,689.4 1220.3,690.3 1234.6,686.1 1237.5,682.8 
		1232.5,677.1 1243.3,672.8 1244.1,672 1244.9,671.2 1244.1,672 1243.3,672.8 1232.5,677.1 1237.5,682.8 1234.6,686.1 1220.3,690.3 
		1219.4,694.4 1219,698.2 1221.6,698.8 1229.2,711.1 1235,722.5 1239.3,724.8 1243.8,734.2 1248.3,747 1254.2,751.8 1258.9,761.4 
		1264.8,770 1264.9,770.4 1266.3,767.6 1264.9,770.4 1265.1,772.4 1265.6,778.9 1271.7,792.5 1282.6,787.9 1298.2,784.1 
		1300.3,781.7 1318.3,774.7 1320.4,769.8 1323.3,768.8 1320,762 1319.5,760.8 1317.2,755.4 1317.1,755 1317.2,755.4 1319.5,760.8 
		1320,762 1323.3,768.8 1324.5,768.3 1332.8,766.9 1337.6,761.4 1342,760.8 1346.5,755.4 1350.9,746.7 1353.8,746.3 1361.5,733.5 
		1359.3,732.5 1342.6,719.8 1342,718.2 1338.6,718.9 1336.8,724.7 1335.2,731.4 1335.2,732.3 1335.2,732.3 1335.2,731.4 
		1336.8,724.6 1338.6,718.9 1342,718.2 1341.9,717.9 1341.9,714.5 1341.5,714 1340.8,714 1340.8,714 1341.5,714 1341.6,713.6 
		1342.2,711.1 1340.7,710.5 1340.3,711.4 1340.2,711.4 1330.7,722.5 1327.3,723 1326.7,723 1326.4,723.2 1317.8,724.5 1314.9,722.2 
		1314.7,722.5 1314.4,722.5 1313.2,722.2 1313.5,721.3 1313.3,720.8 1312.9,720.5 1310.6,720 1310.3,719.4 1309.9,718.9 
		1305.7,706.5 1299.5,701.4 1297.2,696.1 1296.9,695.5 1296.6,695 1294.2,688.5 1295.2,688.8 1294.2,686.4 1294.3,686.2 
		1291.6,685.4 1289.6,686 1287,690.9 1286.1,691.9 1286.1,691.9 1285.1,692.2 1285.1,692.2 1286.1,691.9 1287,690.9 1289.5,686 
		1291.6,685.4 1294.3,686.2 1294.3,686 1296.4,686.3 1297,686.5 1297.5,686.3 1294.5,683 1293.4,674.2 1280,659.8 1283.8,651.5 
		1284,646.7 1279.7,645.4 1276,637.4 1276,637.4 1276,637.4 1276,637.4 1279.7,645.4 1284,646.7 1283.8,651.5 1280,659.8 
		1293.4,674.2 1294.5,683 1297.5,686.3 1297.8,686.2 1306.2,684.8 1314.4,699.6 1326.8,707.2 1333.5,708.2 1337.8,705.6 
		1339.3,706.5 1337.2,707.3 1336.1,708.1 1339.5,706.5 1346.6,710.8 1371.2,716.8 1371.5,716.8 1371.5,716.8 1371.4,716.9 
		1398.4,714.3 1404,723.2 1408.8,725.5 1408.9,725.2 1408.9,725.2 1409,726 1414.3,734 1423.4,744.3 1432.1,739.5 1433.8,735.6 
		1434.4,749.8 1439,772.3 1441,774.6 1447.3,792.7 1450.6,797.7 1455.2,810.7 1458.8,816.7 1470.5,811.4 1472.6,805.8 1475.1,805.7 
		1478,788.1 1478.2,773.8 1488.2,769.8 1489.4,766.1 1496.8,760.3 1507.1,749.4 1511.5,748.4 1515,741.3 1522.6,735.8 1522.2,738.8 
		1527.3,737 1527.4,736 1524.7,726.3 1524.7,726.3 1527.4,736 1527.6,736.5 1536,731 1540.8,731.7 1545.9,744 1546,744 1547.6,741 
		1547.5,737 1547.4,736.7 1547.7,736.5 1547.4,736.7 1547.5,737 1547.6,741.1 1546,744 1546.3,744.4 1550.3,746.5 1558.9,763.3 
		1556.8,771.9 1557.9,772.5 1557.7,772.7 1558.2,772.9 1558.3,772.7 1559.3,773.2 1573.6,766.3 1582.8,797.3 1580.9,803.7 
		1582,806.5 1582.2,806.5 1581.4,808.5 1582.2,817.6 1588,824.2 1588.8,826.2 1590.3,828 1590.3,828 1590.5,828.6 1593.7,842.1 
		1601.8,851.8 1608.7,855.8 1613.7,856.7 1609.7,848.8 1609.3,839.6 1607.7,834.7 1602.5,829.3 1601.5,829.1 1601.5,829.1 
		1599.8,827.8 1585.8,812 1584.9,805.7 1589.6,793.9 1589.5,788.8 1595.1,787.7 1606.1,797.7 1606.3,797.7 1606.3,797.7 
		1606.2,797.5 1607.5,802.3 1610.4,804.6 1613.8,804.4 1614.7,805.2 1623.4,797.8 1631.6,794.5 1632.4,780.5 1632.3,780.2 
		1632.3,780.2 1632.3,779.6 1630.3,773.8 1631.7,772.6 1626.8,768.8 1618.6,756.7 1611.8,753.2 1617.6,748.6 1614.3,743.8 
		1606,741.5 1606.3,738.5 1602,734.9 1601.7,734.3 1601.5,734.1 1599.6,733.6 1599.6,733.6 1601.5,734.1 1601.7,734.3 1601.9,734 
		1611.8,733.3 1617,729.8 1628.1,731.8 1628.1,731.8 1617,729.9 1611.8,733.3 1602,734.1 1601.7,734.3 1602,734.9 1606.3,738.5 
		1606,741.5 1614.3,743.8 1617.6,748.6 1611.8,753.2 1618.6,756.7 1626.8,768.8 1631.7,772.6 1630.3,773.8 1632.3,779.6 
		1632.3,780.2 1632.4,780.6 1631.6,794.5 1623.4,797.8 1614.7,805.2 1615.3,805.6 1617.4,808.6 1617,814.5 1624.6,811 1624.4,806.3 
		1627.1,808.4 1640.6,799.8 1642.4,785.2 1639.7,776.3 1633.9,770.2 1621.5,755 1627.9,744.3 1627.5,743 1634.6,739.7 1634.9,739.6 
		1627.8,736.6 1627.8,736.6 1634.9,739.6 1635.4,739.5 1644.1,738.6 1647.1,747.2 1647.4,743.5 1648.8,742.7 1649.2,742.9 
		1649,742.6 1657.4,737.5 1661.1,738 1666.1,735.4 1666.1,735.4 1666.1,735.4 1666.2,735.4 1666.2,735.4 1666.5,735.2 1666.5,735.2 
		1666.4,735.1 1666.2,735.1 1666.1,735.3 1666.1,735.3 1666.2,735.1 1666.4,735.1 1666.5,735.2 1665.3,731 1665.9,730.8 
		1668.7,733.3 1669.2,733.5 1669.6,733.2 1669.8,733.1 1670.6,733.3 1671,732.9 1676.9,732.2 1687.8,726 1700.8,715.7 1699,711.9 
		1700.8,706.8 1705.3,704.4 1707.9,699.4 1709.9,698.3 1710.2,698.5 1710.2,698.2 1712.3,697.1 1715,686.9 1711.3,684.5 1713.8,680 
		1707.2,672.9 1713.7,674 1708,668.4 1708.1,666 1702.9,656.2 1698.4,653.4 1708.8,641.2 1717.4,638.7 1718.3,635.5 1709.1,633.2 
		1704.9,633.9 1701.8,637.3 1697.2,636 1697.1,630.9 1691.9,629.9 1690.6,623 1698.7,621 1699.7,618.4 1705.8,614.9 1709.8,609.9 
		1715.6,614 1710.4,621.2 1713.7,624 1720.3,619 1727.8,616.5 1727.9,616.6 1743.6,605 1749.4,606.2 1748.7,602.4 1755.3,599.9 
		1758.7,595.6 1762.7,597.2 1762.7,597.2 1758.7,595.6 1755.3,599.9 1748.8,602.4 1749.4,606.2 1743.7,605 1727.9,616.6 1728,616.7 
		1733.6,620.1 1732.4,624.9 1734.7,626.3 1729.8,630.3 1740.7,632.7 1740.8,632.8 1744.6,629 1744.6,629 1740.8,632.8 1740.7,633 
		1741.7,636.3 1739.2,638.7 1741.3,647.1 1739.3,650.9 1741.5,655.8 1755.5,651.2 1756.7,642.7 1752.1,630 1750.7,626.7 1748,629.1 
		1748,629.1 1750.7,626.7 1750.4,626.3 1745.1,622.5 1746.1,618.3 1758.4,609.7 1758.1,604.7 1763.5,599.5 1763.8,599.3 
		1763.7,599.1 1763.1,598 1762.9,597.5 1762.9,597.5 1763.2,597.2 1766.1,594.2 1768.1,578.3 1777.6,577.1 1781.7,568.2 1786,553.6 
		1783.8,550.4 1783.8,550.3 1786,553.6 1781.7,568.2 1777.6,577.1 1768.2,578.3 1766.1,594.3 1763.3,597.3 1762.9,597.5 1763.1,598 
		1763.7,599.1 1763.8,599.3 1764.1,599.1 1777.9,596.3 1789.1,589.8 1798.6,576.8 1805.9,568 1815.3,551.9 1818.6,544.9 
		1819.4,531.3 1822,521.6 1824.5,518.8 1821.7,508.4 1817.7,498.7 1809.4,497.1 1808.3,503.4 1800.9,503.3 1803.3,500.5 
		1801.6,498.3 1798.1,501.1 1793.2,493.6 1789.8,492.1 1792.6,487.9 1801.8,479.7 1809.1,469.5 1819.2,460.6 1822.3,454.1 
		1828.2,447.8 1834.8,443.7 1848.2,443.2 1850.4,445.6 1863.6,443.2 1867.3,444.6 1871.4,439.2 1881.9,441.9 1879.8,446.8 
		1881,449.1 1894.4,445.3 1900.2,446.2 1901.7,442.8 1897.4,442.4 1897.8,438.5 1906.7,427.6 1913.7,417.1 1926.2,414.2 
		1932.1,415.1 1929.8,421.3 1931.2,429.3 1934.6,427.9 1943.8,417.2 1947.3,415.7 1949.2,406.5 1954.4,404.7 1952.8,420.1 
		1950.4,424.8 1943.1,430.4 1929.4,446.4 1922.8,455.6 1915.8,460.8 1912,461.3 1910.5,469 1907.4,472.3 1905.5,481.5 1905.4,490.8 
		1911.8,527.5 1921.5,515.3 1921.6,512.3 1928.9,506.6 1930.4,507.5 1929.8,499.1 1936.7,493.4 1942.2,491.9 1940,484.5 
		1944.6,476.8 1949.2,477.1 1946.1,470.5 1947.9,463.2 1941.4,457.8 1949.1,439.9 1951.7,436.1 1957.4,438 1966.3,431 1965.6,434.5 
		1984.8,431.6 1989,437 1992.4,430.6 2007.6,416.6 2022.9,409 2026.6,405.1 2037.9,408.9 2040.3,399 2034.9,393.2 2036.6,392.5 
		2033.7,383.4 2030.7,384.2 2029.4,378.5 2023.1,378.9 2021.4,375.5 2034.1,379.4 2030.3,364.5 2041.9,336.3 	"/>
	<polygon class="st0" points="823.4,912.4 823.2,900.9 820.1,893.7 795,880.8 782,880.4 772.8,879.3 768.5,882.4 769,876.2 
		763.8,872.3 749.2,868.6 746.7,872.1 741.9,874.4 738.8,873.4 742.7,872.6 747.2,866.3 740.1,865.9 734.4,866.1 734.5,872 
		733.2,871.5 732.9,869.9 725.5,873.9 728.3,868.9 736.3,859.8 732,845.9 729.2,840.5 728.7,841.5 728.6,841.3 726.9,838.9 
		726.6,838.2 714.8,833.8 714.4,834.1 714.9,833.3 710.6,830.5 698.5,830.5 697.3,833.2 697.2,833 693.1,837.2 693.1,837.2 
		697.2,833 697.1,833 696.3,828.9 688,820.6 681.4,816 681.2,815.9 682.1,817.6 677.2,821.7 673.4,830.8 675.8,833.7 677,835 
		677,835 677,835 677,835 677,835 677.2,835.1 672.4,840.2 665,844.2 665,844.2 672.4,840.2 677.2,835.1 677,835 675.8,833.7 
		673.4,830.8 677.2,821.7 682.1,817.6 681.2,815.9 680.3,815.5 674.2,815.6 675.3,813.6 675.6,814.1 676.4,813.3 675.4,813.4 
		676.8,811.2 669,808.6 664.7,804.5 657.5,804.9 653.7,807 646.7,804.8 635,804.7 633.6,800.8 624.4,795 624.2,798.7 615.7,803.1 
		618.3,811.3 615.7,813 613.3,810.1 613.9,798.2 616.8,797.1 617,796.8 617.2,796.5 617.3,794 612.2,795.7 605.7,800.1 600.7,800.3 
		599.8,802.9 595.4,802.5 585.1,818.2 582.8,815.4 582.6,815.3 582.6,815.3 580.8,814 571.4,810 555.9,813.7 553.5,810.3 553.2,810 
		551,811.9 552.2,813.6 551.4,818.7 551.5,818.5 555.1,817.7 563.9,823.5 567.7,821.9 565.1,817.8 572.9,813.3 578.4,816.9 
		579.5,823.3 579.6,823.5 579.6,823.5 580.2,824 582.8,830.5 584.3,842.3 577.4,850.3 574,855.9 574.2,856.3 574.2,856.3 
		574.4,857.2 573.8,857.4 573.4,857.2 573.6,857.5 573.7,857.5 567.2,860.1 567.6,862.2 562.9,870.1 563,877.9 566.1,879.9 
		569.2,878.7 566,883.7 565.9,883.8 565.9,883.8 564.8,884.4 560.9,892.3 562.7,896.6 561.2,899 567.1,902.4 573.3,911.3 581.2,929 
		589.4,942 588.8,945.6 595.5,953.1 608.6,960.2 621.7,970 622.1,970.5 622.1,970.5 622.4,970.8 624,989.4 622.2,1002.7 622,1012.2 
		617.1,1034.4 616.5,1044 615,1045.3 616.2,1060.8 614.6,1063.7 605.3,1092.4 604,1092.1 603.7,1112.2 602,1120.9 606.1,1125.9 
		608.6,1124.1 610.7,1130.9 608.2,1135.6 606,1144.4 609.4,1146.5 603.9,1159 595.7,1158.1 596.5,1160.4 592.4,1164.1 596.2,1163.3 
		600.9,1167.1 600.5,1175.5 603.4,1172.8 604.6,1176.6 599.5,1175.8 599.9,1191.1 601.7,1193.2 602.6,1201.4 595.6,1199.1 
		597.2,1202.5 602.1,1204.3 601.4,1207.2 604.5,1211.4 609.8,1208.7 615.9,1216.7 609.6,1218.7 607.5,1223.1 617.9,1218.9 
		611.4,1222.8 614.9,1228 619.1,1225.8 620,1218.2 627.6,1213.6 630.1,1213.5 633.3,1214.4 624.7,1211.1 613.6,1211 613.6,1211 
		624.7,1211.1 633.3,1214.3 633.6,1213.9 628.1,1202.2 637.1,1191.8 638.9,1183.9 645,1178.6 648.5,1172.1 639.3,1163.6 
		638.1,1159.5 640,1155.7 650.8,1146.8 651.1,1141.4 656.1,1135.7 653,1132.6 660.3,1133.7 659.7,1128.4 652.9,1128.3 652.5,1118.5 
		659.8,1121.1 668.2,1118.6 669.5,1104.6 682.2,1104 696,1096.1 699.7,1086.1 694,1076 690,1073 689.5,1067.5 691.4,1060.1 
		691.5,1059.5 692.4,1052.4 693.3,1047 694.6,1044.6 694.8,1044.3 694.8,1044.3 694.6,1044.6 693.3,1047 692.4,1052.4 691.5,1059.5 
		691.7,1060.1 690.3,1069.3 693.6,1073.1 710.2,1076.3 718.6,1068.3 718.9,1068.1 718.9,1068.1 721.4,1065.8 726.4,1057.1 
		734.5,1049 739.5,1038.9 745.8,1030.6 745.1,1019.1 757.2,1005.5 768.6,1000.1 782.7,998.3 785.1,994.4 789.1,992.5 789.4,987.9 
		796.5,976 801.1,955.7 800,942.4 809.8,928.8 819.8,918.9 	"/>
	<polygon class="st0" points="731.4,868.3 730.9,867.6 727.6,872.7 	"/>
	<polygon class="st0" points="734.3,865.3 732.4,865.2 732.1,865.9 	"/>
	<polygon class="st0" points="769.4,880 768.7,881.8 769.3,881.3 	"/>
	<polygon class="st0" points="763.8,1004.2 764.9,1004.2 765,1003.5 	"/>
	<polygon class="st0" points="766.3,872.4 767.1,872 766.5,871.8 	"/>
</g>
</svg>
